<mxfile host="app.diagrams.net" modified="2020-11-17T21:27:35.549Z" agent="5.0 (Windows NT 10.0; Win64; x64) AppleWebKit/537.36 (KHTML, like Gecko) Chrome/86.0.4240.198 Safari/537.36" etag="sMyGJvGOwcCLr5vrXBaa" version="13.9.9" type="github">
  <diagram name="Page-1" id="e7e014a7-5840-1c2e-5031-d8a46d1fe8dd">
    <mxGraphModel dx="1934" dy="1323" grid="1" gridSize="10" guides="1" tooltips="1" connect="1" arrows="1" fold="1" page="1" pageScale="1" pageWidth="1169" pageHeight="826" background="#ffffff" math="0" shadow="0">
      <root>
        <mxCell id="0" />
        <mxCell id="1" parent="0" />
        <mxCell id="mrNSQSsq8Cu4W_pzYkvR-104" style="edgeStyle=orthogonalEdgeStyle;rounded=0;orthogonalLoop=1;jettySize=auto;html=1;entryX=0.25;entryY=0;entryDx=0;entryDy=0;startArrow=ERmany;startFill=0;endArrow=ERmany;endFill=0;" edge="1" parent="1" source="mrNSQSsq8Cu4W_pzYkvR-41" target="mrNSQSsq8Cu4W_pzYkvR-61">
          <mxGeometry relative="1" as="geometry" />
        </mxCell>
        <mxCell id="mrNSQSsq8Cu4W_pzYkvR-41" value="Clienti" style="shape=table;html=1;whiteSpace=wrap;startSize=30;container=1;collapsible=0;childLayout=tableLayout;fixedRows=1;rowLines=0;fontStyle=1;align=center;fillColor=#f8cecc;strokeColor=#b85450;gradientColor=#ffffff;swimlaneFillColor=#ffffff;" vertex="1" parent="1">
          <mxGeometry x="-730" y="-65" width="160" height="170" as="geometry" />
        </mxCell>
        <mxCell id="mrNSQSsq8Cu4W_pzYkvR-42" value="" style="shape=partialRectangle;html=1;whiteSpace=wrap;collapsible=0;dropTarget=0;pointerEvents=0;fillColor=none;top=0;left=0;bottom=1;right=0;points=[[0,0.5],[1,0.5]];portConstraint=eastwest;" vertex="1" parent="mrNSQSsq8Cu4W_pzYkvR-41">
          <mxGeometry y="30" width="160" height="30" as="geometry" />
        </mxCell>
        <mxCell id="mrNSQSsq8Cu4W_pzYkvR-43" value="PK" style="shape=partialRectangle;html=1;whiteSpace=wrap;connectable=0;fillColor=none;top=0;left=0;bottom=0;right=0;overflow=hidden;" vertex="1" parent="mrNSQSsq8Cu4W_pzYkvR-42">
          <mxGeometry width="40" height="30" as="geometry" />
        </mxCell>
        <mxCell id="mrNSQSsq8Cu4W_pzYkvR-44" value="id_cliente" style="shape=partialRectangle;html=1;whiteSpace=wrap;connectable=0;fillColor=none;top=0;left=0;bottom=0;right=0;align=left;spacingLeft=6;overflow=hidden;" vertex="1" parent="mrNSQSsq8Cu4W_pzYkvR-42">
          <mxGeometry x="40" width="120" height="30" as="geometry" />
        </mxCell>
        <mxCell id="mrNSQSsq8Cu4W_pzYkvR-45" value="" style="shape=partialRectangle;html=1;whiteSpace=wrap;collapsible=0;dropTarget=0;pointerEvents=0;fillColor=none;top=0;left=0;bottom=0;right=0;points=[[0,0.5],[1,0.5]];portConstraint=eastwest;" vertex="1" parent="mrNSQSsq8Cu4W_pzYkvR-41">
          <mxGeometry y="60" width="160" height="90" as="geometry" />
        </mxCell>
        <mxCell id="mrNSQSsq8Cu4W_pzYkvR-46" value="&lt;br&gt;&lt;br&gt;&lt;br&gt;" style="shape=partialRectangle;html=1;whiteSpace=wrap;connectable=0;fillColor=none;top=0;left=0;bottom=0;right=0;overflow=hidden;" vertex="1" parent="mrNSQSsq8Cu4W_pzYkvR-45">
          <mxGeometry width="40" height="90" as="geometry" />
        </mxCell>
        <mxCell id="mrNSQSsq8Cu4W_pzYkvR-47" value="nome&lt;br&gt;eta&lt;br&gt;indirizzo&lt;br&gt;professione&lt;br&gt;tipologia_abonamento&lt;br&gt;FK Id_sala" style="shape=partialRectangle;html=1;whiteSpace=wrap;connectable=0;fillColor=none;top=0;left=0;bottom=0;right=0;align=left;spacingLeft=6;overflow=hidden;" vertex="1" parent="mrNSQSsq8Cu4W_pzYkvR-45">
          <mxGeometry x="40" width="120" height="90" as="geometry" />
        </mxCell>
        <mxCell id="mrNSQSsq8Cu4W_pzYkvR-48" value="" style="shape=partialRectangle;html=1;whiteSpace=wrap;collapsible=0;dropTarget=0;pointerEvents=0;fillColor=none;top=0;left=0;bottom=0;right=0;points=[[0,0.5],[1,0.5]];portConstraint=eastwest;" vertex="1" parent="mrNSQSsq8Cu4W_pzYkvR-41">
          <mxGeometry y="150" width="160" height="20" as="geometry" />
        </mxCell>
        <mxCell id="mrNSQSsq8Cu4W_pzYkvR-49" value="" style="shape=partialRectangle;html=1;whiteSpace=wrap;connectable=0;fillColor=none;top=0;left=0;bottom=0;right=0;overflow=hidden;" vertex="1" parent="mrNSQSsq8Cu4W_pzYkvR-48">
          <mxGeometry width="40" height="20" as="geometry" />
        </mxCell>
        <mxCell id="mrNSQSsq8Cu4W_pzYkvR-50" value="" style="shape=partialRectangle;html=1;whiteSpace=wrap;connectable=0;fillColor=none;top=0;left=0;bottom=0;right=0;align=left;spacingLeft=6;overflow=hidden;" vertex="1" parent="mrNSQSsq8Cu4W_pzYkvR-48">
          <mxGeometry x="40" width="120" height="20" as="geometry" />
        </mxCell>
        <mxCell id="mrNSQSsq8Cu4W_pzYkvR-51" value="Palestra" style="shape=table;html=1;whiteSpace=wrap;startSize=30;container=1;collapsible=0;childLayout=tableLayout;fixedRows=1;rowLines=0;fontStyle=1;align=center;fillColor=#dae8fc;strokeColor=#6c8ebf;" vertex="1" parent="1">
          <mxGeometry x="-480" y="-120" width="180" height="120" as="geometry" />
        </mxCell>
        <mxCell id="mrNSQSsq8Cu4W_pzYkvR-52" value="" style="shape=partialRectangle;html=1;whiteSpace=wrap;collapsible=0;dropTarget=0;pointerEvents=0;fillColor=none;top=0;left=0;bottom=1;right=0;points=[[0,0.5],[1,0.5]];portConstraint=eastwest;" vertex="1" parent="mrNSQSsq8Cu4W_pzYkvR-51">
          <mxGeometry y="30" width="180" height="30" as="geometry" />
        </mxCell>
        <mxCell id="mrNSQSsq8Cu4W_pzYkvR-53" value="PK" style="shape=partialRectangle;html=1;whiteSpace=wrap;connectable=0;fillColor=none;top=0;left=0;bottom=0;right=0;overflow=hidden;" vertex="1" parent="mrNSQSsq8Cu4W_pzYkvR-52">
          <mxGeometry width="40" height="30" as="geometry" />
        </mxCell>
        <mxCell id="mrNSQSsq8Cu4W_pzYkvR-54" value="Id_palestra" style="shape=partialRectangle;html=1;whiteSpace=wrap;connectable=0;fillColor=none;top=0;left=0;bottom=0;right=0;align=left;spacingLeft=6;overflow=hidden;" vertex="1" parent="mrNSQSsq8Cu4W_pzYkvR-52">
          <mxGeometry x="40" width="140" height="30" as="geometry" />
        </mxCell>
        <mxCell id="mrNSQSsq8Cu4W_pzYkvR-55" value="" style="shape=partialRectangle;html=1;whiteSpace=wrap;collapsible=0;dropTarget=0;pointerEvents=0;fillColor=none;top=0;left=0;bottom=0;right=0;points=[[0,0.5],[1,0.5]];portConstraint=eastwest;" vertex="1" parent="mrNSQSsq8Cu4W_pzYkvR-51">
          <mxGeometry y="60" width="180" height="30" as="geometry" />
        </mxCell>
        <mxCell id="mrNSQSsq8Cu4W_pzYkvR-56" value="" style="shape=partialRectangle;html=1;whiteSpace=wrap;connectable=0;fillColor=none;top=0;left=0;bottom=0;right=0;overflow=hidden;" vertex="1" parent="mrNSQSsq8Cu4W_pzYkvR-55">
          <mxGeometry width="40" height="30" as="geometry" />
        </mxCell>
        <mxCell id="mrNSQSsq8Cu4W_pzYkvR-57" value="abonamento_m&lt;br&gt;abonamento&lt;br&gt;FK Id_staff" style="shape=partialRectangle;html=1;whiteSpace=wrap;connectable=0;fillColor=none;top=0;left=0;bottom=0;right=0;align=left;spacingLeft=6;overflow=hidden;" vertex="1" parent="mrNSQSsq8Cu4W_pzYkvR-55">
          <mxGeometry x="40" width="140" height="30" as="geometry" />
        </mxCell>
        <mxCell id="mrNSQSsq8Cu4W_pzYkvR-58" value="" style="shape=partialRectangle;html=1;whiteSpace=wrap;collapsible=0;dropTarget=0;pointerEvents=0;fillColor=none;top=0;left=0;bottom=0;right=0;points=[[0,0.5],[1,0.5]];portConstraint=eastwest;" vertex="1" parent="mrNSQSsq8Cu4W_pzYkvR-51">
          <mxGeometry y="90" width="180" height="30" as="geometry" />
        </mxCell>
        <mxCell id="mrNSQSsq8Cu4W_pzYkvR-59" value="" style="shape=partialRectangle;html=1;whiteSpace=wrap;connectable=0;fillColor=none;top=0;left=0;bottom=0;right=0;overflow=hidden;" vertex="1" parent="mrNSQSsq8Cu4W_pzYkvR-58">
          <mxGeometry width="40" height="30" as="geometry" />
        </mxCell>
        <mxCell id="mrNSQSsq8Cu4W_pzYkvR-60" value="" style="shape=partialRectangle;html=1;whiteSpace=wrap;connectable=0;fillColor=none;top=0;left=0;bottom=0;right=0;align=left;spacingLeft=6;overflow=hidden;" vertex="1" parent="mrNSQSsq8Cu4W_pzYkvR-58">
          <mxGeometry x="40" width="140" height="30" as="geometry" />
        </mxCell>
        <mxCell id="mrNSQSsq8Cu4W_pzYkvR-61" value="Sale" style="shape=table;html=1;whiteSpace=wrap;startSize=30;container=1;collapsible=0;childLayout=tableLayout;fixedRows=1;rowLines=0;fontStyle=1;align=center;fillColor=#60a917;strokeColor=#2D7600;fontColor=#ffffff;" vertex="1" parent="1">
          <mxGeometry x="-710" y="210" width="180" height="150" as="geometry" />
        </mxCell>
        <mxCell id="mrNSQSsq8Cu4W_pzYkvR-62" value="" style="shape=partialRectangle;html=1;whiteSpace=wrap;collapsible=0;dropTarget=0;pointerEvents=0;fillColor=none;top=0;left=0;bottom=1;right=0;points=[[0,0.5],[1,0.5]];portConstraint=eastwest;" vertex="1" parent="mrNSQSsq8Cu4W_pzYkvR-61">
          <mxGeometry y="30" width="180" height="40" as="geometry" />
        </mxCell>
        <mxCell id="mrNSQSsq8Cu4W_pzYkvR-63" value="PK" style="shape=partialRectangle;html=1;whiteSpace=wrap;connectable=0;fillColor=none;top=0;left=0;bottom=0;right=0;overflow=hidden;" vertex="1" parent="mrNSQSsq8Cu4W_pzYkvR-62">
          <mxGeometry width="40" height="40" as="geometry" />
        </mxCell>
        <mxCell id="mrNSQSsq8Cu4W_pzYkvR-64" value="Id_sala" style="shape=partialRectangle;html=1;whiteSpace=wrap;connectable=0;fillColor=none;top=0;left=0;bottom=0;right=0;align=left;spacingLeft=6;overflow=hidden;" vertex="1" parent="mrNSQSsq8Cu4W_pzYkvR-62">
          <mxGeometry x="40" width="140" height="40" as="geometry" />
        </mxCell>
        <mxCell id="mrNSQSsq8Cu4W_pzYkvR-65" value="" style="shape=partialRectangle;html=1;whiteSpace=wrap;collapsible=0;dropTarget=0;pointerEvents=0;fillColor=none;top=0;left=0;bottom=0;right=0;points=[[0,0.5],[1,0.5]];portConstraint=eastwest;" vertex="1" parent="mrNSQSsq8Cu4W_pzYkvR-61">
          <mxGeometry y="70" width="180" height="80" as="geometry" />
        </mxCell>
        <mxCell id="mrNSQSsq8Cu4W_pzYkvR-66" value="" style="shape=partialRectangle;html=1;whiteSpace=wrap;connectable=0;fillColor=none;top=0;left=0;bottom=0;right=0;overflow=hidden;" vertex="1" parent="mrNSQSsq8Cu4W_pzYkvR-65">
          <mxGeometry width="40" height="80" as="geometry" />
        </mxCell>
        <mxCell id="mrNSQSsq8Cu4W_pzYkvR-67" value="sala_pesi&lt;br&gt;piscina&lt;br&gt;parete_arrampitaca&lt;br&gt;sauna&lt;br&gt;FK Id_cliente" style="shape=partialRectangle;html=1;whiteSpace=wrap;connectable=0;fillColor=none;top=0;left=0;bottom=0;right=0;align=left;spacingLeft=6;overflow=hidden;" vertex="1" parent="mrNSQSsq8Cu4W_pzYkvR-65">
          <mxGeometry x="40" width="140" height="80" as="geometry" />
        </mxCell>
        <mxCell id="mrNSQSsq8Cu4W_pzYkvR-71" value="Schede_cliente" style="shape=table;html=1;whiteSpace=wrap;startSize=30;container=1;collapsible=0;childLayout=tableLayout;fixedRows=1;rowLines=0;fontStyle=1;align=center;fillColor=#6a00ff;strokeColor=#3700CC;fontColor=#ffffff;" vertex="1" parent="1">
          <mxGeometry x="-460" y="160" width="180" height="150" as="geometry" />
        </mxCell>
        <mxCell id="mrNSQSsq8Cu4W_pzYkvR-72" value="" style="shape=partialRectangle;html=1;whiteSpace=wrap;collapsible=0;dropTarget=0;pointerEvents=0;fillColor=none;top=0;left=0;bottom=1;right=0;points=[[0,0.5],[1,0.5]];portConstraint=eastwest;" vertex="1" parent="mrNSQSsq8Cu4W_pzYkvR-71">
          <mxGeometry y="30" width="180" height="30" as="geometry" />
        </mxCell>
        <mxCell id="mrNSQSsq8Cu4W_pzYkvR-73" value="PK" style="shape=partialRectangle;html=1;whiteSpace=wrap;connectable=0;fillColor=none;top=0;left=0;bottom=0;right=0;overflow=hidden;" vertex="1" parent="mrNSQSsq8Cu4W_pzYkvR-72">
          <mxGeometry width="40" height="30" as="geometry" />
        </mxCell>
        <mxCell id="mrNSQSsq8Cu4W_pzYkvR-74" value="Id_scheda" style="shape=partialRectangle;html=1;whiteSpace=wrap;connectable=0;fillColor=none;top=0;left=0;bottom=0;right=0;align=left;spacingLeft=6;overflow=hidden;" vertex="1" parent="mrNSQSsq8Cu4W_pzYkvR-72">
          <mxGeometry x="40" width="140" height="30" as="geometry" />
        </mxCell>
        <mxCell id="mrNSQSsq8Cu4W_pzYkvR-75" value="" style="shape=partialRectangle;html=1;whiteSpace=wrap;collapsible=0;dropTarget=0;pointerEvents=0;fillColor=none;top=0;left=0;bottom=0;right=0;points=[[0,0.5],[1,0.5]];portConstraint=eastwest;" vertex="1" parent="mrNSQSsq8Cu4W_pzYkvR-71">
          <mxGeometry y="60" width="180" height="60" as="geometry" />
        </mxCell>
        <mxCell id="mrNSQSsq8Cu4W_pzYkvR-76" value="" style="shape=partialRectangle;html=1;whiteSpace=wrap;connectable=0;fillColor=none;top=0;left=0;bottom=0;right=0;overflow=hidden;" vertex="1" parent="mrNSQSsq8Cu4W_pzYkvR-75">
          <mxGeometry width="40" height="60" as="geometry" />
        </mxCell>
        <mxCell id="mrNSQSsq8Cu4W_pzYkvR-77" value="esercizi&lt;br&gt;numero_ripetizioni&lt;br&gt;frequenza&lt;br&gt;" style="shape=partialRectangle;html=1;whiteSpace=wrap;connectable=0;fillColor=none;top=0;left=0;bottom=0;right=0;align=left;spacingLeft=6;overflow=hidden;" vertex="1" parent="mrNSQSsq8Cu4W_pzYkvR-75">
          <mxGeometry x="40" width="140" height="60" as="geometry" />
        </mxCell>
        <mxCell id="mrNSQSsq8Cu4W_pzYkvR-78" value="" style="shape=partialRectangle;html=1;whiteSpace=wrap;collapsible=0;dropTarget=0;pointerEvents=0;fillColor=none;top=0;left=0;bottom=0;right=0;points=[[0,0.5],[1,0.5]];portConstraint=eastwest;" vertex="1" parent="mrNSQSsq8Cu4W_pzYkvR-71">
          <mxGeometry y="120" width="180" height="30" as="geometry" />
        </mxCell>
        <mxCell id="mrNSQSsq8Cu4W_pzYkvR-79" value="" style="shape=partialRectangle;html=1;whiteSpace=wrap;connectable=0;fillColor=none;top=0;left=0;bottom=0;right=0;overflow=hidden;" vertex="1" parent="mrNSQSsq8Cu4W_pzYkvR-78">
          <mxGeometry width="40" height="30" as="geometry" />
        </mxCell>
        <mxCell id="mrNSQSsq8Cu4W_pzYkvR-80" value="" style="shape=partialRectangle;html=1;whiteSpace=wrap;connectable=0;fillColor=none;top=0;left=0;bottom=0;right=0;align=left;spacingLeft=6;overflow=hidden;" vertex="1" parent="mrNSQSsq8Cu4W_pzYkvR-78">
          <mxGeometry x="40" width="140" height="30" as="geometry" />
        </mxCell>
        <mxCell id="mrNSQSsq8Cu4W_pzYkvR-108" style="edgeStyle=orthogonalEdgeStyle;rounded=0;orthogonalLoop=1;jettySize=auto;html=1;entryX=0.767;entryY=0.967;entryDx=0;entryDy=0;entryPerimeter=0;startArrow=classic;startFill=1;endArrow=ERmany;endFill=0;" edge="1" parent="1" source="mrNSQSsq8Cu4W_pzYkvR-81" target="mrNSQSsq8Cu4W_pzYkvR-58">
          <mxGeometry relative="1" as="geometry">
            <Array as="points">
              <mxPoint x="-170" y="80" />
              <mxPoint x="-342" y="80" />
            </Array>
          </mxGeometry>
        </mxCell>
        <mxCell id="mrNSQSsq8Cu4W_pzYkvR-81" value="Staff_medico" style="shape=table;html=1;whiteSpace=wrap;startSize=30;container=1;collapsible=0;childLayout=tableLayout;fixedRows=1;rowLines=0;fontStyle=1;align=center;fillColor=#d80073;strokeColor=#A50040;fontColor=#ffffff;" vertex="1" parent="1">
          <mxGeometry x="-200" y="160" width="180" height="180" as="geometry" />
        </mxCell>
        <mxCell id="mrNSQSsq8Cu4W_pzYkvR-82" value="" style="shape=partialRectangle;html=1;whiteSpace=wrap;collapsible=0;dropTarget=0;pointerEvents=0;fillColor=none;top=0;left=0;bottom=1;right=0;points=[[0,0.5],[1,0.5]];portConstraint=eastwest;" vertex="1" parent="mrNSQSsq8Cu4W_pzYkvR-81">
          <mxGeometry y="30" width="180" height="30" as="geometry" />
        </mxCell>
        <mxCell id="mrNSQSsq8Cu4W_pzYkvR-83" value="PK" style="shape=partialRectangle;html=1;whiteSpace=wrap;connectable=0;fillColor=none;top=0;left=0;bottom=0;right=0;overflow=hidden;" vertex="1" parent="mrNSQSsq8Cu4W_pzYkvR-82">
          <mxGeometry width="40" height="30" as="geometry" />
        </mxCell>
        <mxCell id="mrNSQSsq8Cu4W_pzYkvR-84" value="Id_staff" style="shape=partialRectangle;html=1;whiteSpace=wrap;connectable=0;fillColor=none;top=0;left=0;bottom=0;right=0;align=left;spacingLeft=6;overflow=hidden;" vertex="1" parent="mrNSQSsq8Cu4W_pzYkvR-82">
          <mxGeometry x="40" width="140" height="30" as="geometry" />
        </mxCell>
        <mxCell id="mrNSQSsq8Cu4W_pzYkvR-85" value="" style="shape=partialRectangle;html=1;whiteSpace=wrap;collapsible=0;dropTarget=0;pointerEvents=0;fillColor=none;top=0;left=0;bottom=0;right=0;points=[[0,0.5],[1,0.5]];portConstraint=eastwest;" vertex="1" parent="mrNSQSsq8Cu4W_pzYkvR-81">
          <mxGeometry y="60" width="180" height="90" as="geometry" />
        </mxCell>
        <mxCell id="mrNSQSsq8Cu4W_pzYkvR-86" value="" style="shape=partialRectangle;html=1;whiteSpace=wrap;connectable=0;fillColor=none;top=0;left=0;bottom=0;right=0;overflow=hidden;" vertex="1" parent="mrNSQSsq8Cu4W_pzYkvR-85">
          <mxGeometry width="40" height="90" as="geometry" />
        </mxCell>
        <mxCell id="mrNSQSsq8Cu4W_pzYkvR-87" value="osservare_cliente&lt;br&gt;grado&lt;br&gt;forma&lt;br&gt;dieta" style="shape=partialRectangle;html=1;whiteSpace=wrap;connectable=0;fillColor=none;top=0;left=0;bottom=0;right=0;align=left;spacingLeft=6;overflow=hidden;" vertex="1" parent="mrNSQSsq8Cu4W_pzYkvR-85">
          <mxGeometry x="40" width="140" height="90" as="geometry" />
        </mxCell>
        <mxCell id="mrNSQSsq8Cu4W_pzYkvR-88" value="" style="shape=partialRectangle;html=1;whiteSpace=wrap;collapsible=0;dropTarget=0;pointerEvents=0;fillColor=none;top=0;left=0;bottom=0;right=0;points=[[0,0.5],[1,0.5]];portConstraint=eastwest;" vertex="1" parent="mrNSQSsq8Cu4W_pzYkvR-81">
          <mxGeometry y="150" width="180" height="30" as="geometry" />
        </mxCell>
        <mxCell id="mrNSQSsq8Cu4W_pzYkvR-89" value="" style="shape=partialRectangle;html=1;whiteSpace=wrap;connectable=0;fillColor=none;top=0;left=0;bottom=0;right=0;overflow=hidden;" vertex="1" parent="mrNSQSsq8Cu4W_pzYkvR-88">
          <mxGeometry width="40" height="30" as="geometry" />
        </mxCell>
        <mxCell id="mrNSQSsq8Cu4W_pzYkvR-90" value="" style="shape=partialRectangle;html=1;whiteSpace=wrap;connectable=0;fillColor=none;top=0;left=0;bottom=0;right=0;align=left;spacingLeft=6;overflow=hidden;" vertex="1" parent="mrNSQSsq8Cu4W_pzYkvR-88">
          <mxGeometry x="40" width="140" height="30" as="geometry" />
        </mxCell>
        <mxCell id="mrNSQSsq8Cu4W_pzYkvR-91" value="Controlli" style="shape=table;html=1;whiteSpace=wrap;startSize=30;container=1;collapsible=0;childLayout=tableLayout;fixedRows=1;rowLines=0;fontStyle=1;align=center;fillColor=#fff2cc;strokeColor=#d6b656;" vertex="1" parent="1">
          <mxGeometry x="-200" y="-140" width="180" height="160" as="geometry" />
        </mxCell>
        <mxCell id="mrNSQSsq8Cu4W_pzYkvR-92" value="" style="shape=partialRectangle;html=1;whiteSpace=wrap;collapsible=0;dropTarget=0;pointerEvents=0;fillColor=none;top=0;left=0;bottom=1;right=0;points=[[0,0.5],[1,0.5]];portConstraint=eastwest;" vertex="1" parent="mrNSQSsq8Cu4W_pzYkvR-91">
          <mxGeometry y="30" width="180" height="30" as="geometry" />
        </mxCell>
        <mxCell id="mrNSQSsq8Cu4W_pzYkvR-93" value="PK" style="shape=partialRectangle;html=1;whiteSpace=wrap;connectable=0;fillColor=none;top=0;left=0;bottom=0;right=0;overflow=hidden;" vertex="1" parent="mrNSQSsq8Cu4W_pzYkvR-92">
          <mxGeometry width="40" height="30" as="geometry" />
        </mxCell>
        <mxCell id="mrNSQSsq8Cu4W_pzYkvR-94" value="Risultati" style="shape=partialRectangle;html=1;whiteSpace=wrap;connectable=0;fillColor=none;top=0;left=0;bottom=0;right=0;align=left;spacingLeft=6;overflow=hidden;" vertex="1" parent="mrNSQSsq8Cu4W_pzYkvR-92">
          <mxGeometry x="40" width="140" height="30" as="geometry" />
        </mxCell>
        <mxCell id="mrNSQSsq8Cu4W_pzYkvR-95" value="" style="shape=partialRectangle;html=1;whiteSpace=wrap;collapsible=0;dropTarget=0;pointerEvents=0;fillColor=none;top=0;left=0;bottom=0;right=0;points=[[0,0.5],[1,0.5]];portConstraint=eastwest;" vertex="1" parent="mrNSQSsq8Cu4W_pzYkvR-91">
          <mxGeometry y="60" width="180" height="70" as="geometry" />
        </mxCell>
        <mxCell id="mrNSQSsq8Cu4W_pzYkvR-96" value="" style="shape=partialRectangle;html=1;whiteSpace=wrap;connectable=0;fillColor=none;top=0;left=0;bottom=0;right=0;overflow=hidden;" vertex="1" parent="mrNSQSsq8Cu4W_pzYkvR-95">
          <mxGeometry width="40" height="70" as="geometry" />
        </mxCell>
        <mxCell id="mrNSQSsq8Cu4W_pzYkvR-97" value="peso&lt;br&gt;massa&lt;br&gt;freq_r&lt;br&gt;freq_s" style="shape=partialRectangle;html=1;whiteSpace=wrap;connectable=0;fillColor=none;top=0;left=0;bottom=0;right=0;align=left;spacingLeft=6;overflow=hidden;" vertex="1" parent="mrNSQSsq8Cu4W_pzYkvR-95">
          <mxGeometry x="40" width="140" height="70" as="geometry" />
        </mxCell>
        <mxCell id="mrNSQSsq8Cu4W_pzYkvR-98" value="" style="shape=partialRectangle;html=1;whiteSpace=wrap;collapsible=0;dropTarget=0;pointerEvents=0;fillColor=none;top=0;left=0;bottom=0;right=0;points=[[0,0.5],[1,0.5]];portConstraint=eastwest;" vertex="1" parent="mrNSQSsq8Cu4W_pzYkvR-91">
          <mxGeometry y="130" width="180" height="30" as="geometry" />
        </mxCell>
        <mxCell id="mrNSQSsq8Cu4W_pzYkvR-99" value="" style="shape=partialRectangle;html=1;whiteSpace=wrap;connectable=0;fillColor=none;top=0;left=0;bottom=0;right=0;overflow=hidden;" vertex="1" parent="mrNSQSsq8Cu4W_pzYkvR-98">
          <mxGeometry width="40" height="30" as="geometry" />
        </mxCell>
        <mxCell id="mrNSQSsq8Cu4W_pzYkvR-100" value="" style="shape=partialRectangle;html=1;whiteSpace=wrap;connectable=0;fillColor=none;top=0;left=0;bottom=0;right=0;align=left;spacingLeft=6;overflow=hidden;" vertex="1" parent="mrNSQSsq8Cu4W_pzYkvR-98">
          <mxGeometry x="40" width="140" height="30" as="geometry" />
        </mxCell>
        <mxCell id="mrNSQSsq8Cu4W_pzYkvR-101" style="edgeStyle=orthogonalEdgeStyle;rounded=0;orthogonalLoop=1;jettySize=auto;html=1;exitX=1;exitY=0.5;exitDx=0;exitDy=0;entryX=0;entryY=0;entryDx=0;entryDy=0;" edge="1" parent="1" source="mrNSQSsq8Cu4W_pzYkvR-48" target="mrNSQSsq8Cu4W_pzYkvR-71">
          <mxGeometry relative="1" as="geometry" />
        </mxCell>
        <mxCell id="mrNSQSsq8Cu4W_pzYkvR-102" style="edgeStyle=orthogonalEdgeStyle;rounded=0;orthogonalLoop=1;jettySize=auto;html=1;exitX=1;exitY=0.5;exitDx=0;exitDy=0;entryX=0;entryY=0.5;entryDx=0;entryDy=0;" edge="1" parent="1" source="mrNSQSsq8Cu4W_pzYkvR-45" target="mrNSQSsq8Cu4W_pzYkvR-58">
          <mxGeometry relative="1" as="geometry" />
        </mxCell>
        <mxCell id="mrNSQSsq8Cu4W_pzYkvR-103" value="" style="endArrow=classic;html=1;entryX=0.444;entryY=0.967;entryDx=0;entryDy=0;entryPerimeter=0;" edge="1" parent="1" target="mrNSQSsq8Cu4W_pzYkvR-98">
          <mxGeometry width="50" height="50" relative="1" as="geometry">
            <mxPoint x="-120" y="160" as="sourcePoint" />
            <mxPoint x="-70" y="110" as="targetPoint" />
          </mxGeometry>
        </mxCell>
      </root>
    </mxGraphModel>
  </diagram>
</mxfile>
